<?xml version="1.0" encoding="UTF-8"?>
<!DOCTYPE svg PUBLIC "-//W3C//DTD SVG 1.1//EN" "http://www.w3.org/Graphics/SVG/1.1/DTD/svg11.dtd">
<svg xmlns="http://www.w3.org/2000/svg" version="1.1" width="240px" height="240px" style="shape-rendering:geometricPrecision; text-rendering:geometricPrecision; image-rendering:optimizeQuality; fill-rule:evenodd; clip-rule:evenodd" xmlns:xlink="http://www.w3.org/1999/xlink">
<g><path style="opacity:0.94" fill="#010000" d="M 190.5,-0.5 C 191.167,-0.5 191.833,-0.5 192.5,-0.5C 196.63,4.13118 200.963,8.63118 205.5,13C 212.158,13.4996 218.825,13.6663 225.5,13.5C 225.334,20.175 225.5,26.8417 226,33.5C 230.369,38.0367 234.869,42.3701 239.5,46.5C 239.5,47.1667 239.5,47.8333 239.5,48.5C 234.869,52.6299 230.369,56.9633 226,61.5C 225.5,68.4921 225.334,75.4921 225.5,82.5C 215.161,82.3335 204.828,82.5002 194.5,83C 196.024,85.8995 197.357,88.8995 198.5,92C 195.167,96 191.833,100 188.5,104C 204.749,153.045 192.415,193.045 151.5,224C 139.05,231.736 125.716,236.903 111.5,239.5C 102.167,239.5 92.8333,239.5 83.5,239.5C 36.7119,229.712 8.71186,201.379 -0.5,154.5C -0.5,145.833 -0.5,137.167 -0.5,128.5C 8.53357,81.6327 36.5336,53.466 83.5,44C 101.258,41.7902 118.424,43.9569 135,50.5C 139,47.1667 143,43.8333 147,40.5C 150.251,41.2927 153.251,42.626 156,44.5C 156.5,34.172 156.666,23.8387 156.5,13.5C 163.508,13.6663 170.508,13.4996 177.5,13C 182.037,8.63118 186.37,4.13118 190.5,-0.5 Z"/></g>
<g><path style="opacity:1" fill="#e11823" d="M 193.5,66.5 C 195.628,63.8697 197.961,61.3697 200.5,59C 198.667,57.1667 196.833,55.3333 195,53.5C 194.502,50.5184 194.335,47.5184 194.5,44.5C 191.482,44.6646 188.482,44.498 185.5,44C 183.667,42.1667 181.833,40.3333 180,38.5C 177.63,41.0386 175.13,43.3719 172.5,45.5C 172.5,39.8333 172.5,34.1667 172.5,28.5C 176.514,28.6655 180.514,28.4988 184.5,28C 186.385,25.7776 188.551,23.9443 191,22.5C 193.449,23.9443 195.615,25.7776 197.5,28C 201.486,28.4988 205.486,28.6655 209.5,28.5C 209.334,32.5138 209.501,36.5138 210,40.5C 212.349,43.0168 214.849,45.3501 217.5,47.5C 215.517,49.9837 213.35,52.3171 211,54.5C 210.501,58.4862 210.334,62.4862 210.5,66.5C 204.833,66.5 199.167,66.5 193.5,66.5 Z"/></g>
<g><path style="opacity:1" fill="#fdc53e" d="M 193.5,66.5 C 189.833,66.5 186.167,66.5 182.5,66.5C 184.475,65.3536 185.975,63.687 187,61.5C 187.498,58.1832 187.665,54.8499 187.5,51.5C 181.685,50.456 176.685,51.7893 172.5,55.5C 172.5,52.1667 172.5,48.8333 172.5,45.5C 175.13,43.3719 177.63,41.0386 180,38.5C 181.833,40.3333 183.667,42.1667 185.5,44C 188.482,44.498 191.482,44.6646 194.5,44.5C 194.335,47.5184 194.502,50.5184 195,53.5C 196.833,55.3333 198.667,57.1667 200.5,59C 197.961,61.3697 195.628,63.8697 193.5,66.5 Z"/></g>
<g><path style="opacity:1" fill="#fdfbf8" d="M 182.5,66.5 C 181.5,66.5 180.5,66.5 179.5,66.5C 175.5,65.8333 173.167,63.5 172.5,59.5C 172.5,58.1667 172.5,56.8333 172.5,55.5C 176.685,51.7893 181.685,50.456 187.5,51.5C 187.665,54.8499 187.498,58.1832 187,61.5C 185.975,63.687 184.475,65.3536 182.5,66.5 Z"/></g>
<g><path style="opacity:1" fill="#373737" d="M 139.5,69.5 C 151.118,77.785 161.118,87.785 169.5,99.5C 187.845,138.6 181.845,173.434 151.5,204C 126.603,223.762 98.9364,228.762 68.5,219C 27.5934,199.695 10.4267,167.528 17,122.5C 26.9864,88.1812 49.4864,67.3478 84.5,60C 94.8782,59.1618 105.212,59.4952 115.5,61C 123.638,63.5452 131.638,66.3786 139.5,69.5 Z"/></g>
<g><path style="opacity:1" fill="#727272" d="M 164.5,66.5 C 166.167,70.1667 168.833,72.8333 172.5,74.5C 174.688,79.0407 177.021,83.5407 179.5,88C 176.344,91.9893 173.011,95.8226 169.5,99.5C 161.118,87.785 151.118,77.785 139.5,69.5C 142.55,65.4483 146.217,62.115 150.5,59.5C 155.226,61.8628 159.892,64.1961 164.5,66.5 Z"/></g>
<g><path style="opacity:1" fill="#c4c4c4" d="M 172.5,59.5 C 173.167,63.5 175.5,65.8333 179.5,66.5C 177.167,69.1667 174.833,71.8333 172.5,74.5C 168.833,72.8333 166.167,70.1667 164.5,66.5C 167.167,64.1667 169.833,61.8333 172.5,59.5 Z"/></g>
<g><path style="opacity:1" fill="#737373" d="M 54.5,89.5 C 70.6994,88.5263 76.8661,95.8597 73,111.5C 66.789,118.912 59.289,120.412 50.5,116C 45.854,110.689 44.354,104.523 46,97.5C 48.0738,93.9231 50.9072,91.2565 54.5,89.5 Z"/></g>
</svg>
